<svg xmlns="http://www.w3.org/2000/svg" width="55" height="70" fill="none">
  <g clip-path="url(#a)">
    <g fill-rule="evenodd" clip-rule="evenodd">
      <g fill="#1D78A9">
        <path d="m24.578 8.44-1.125-.621.543 1.164c.175-.194.369-.369.582-.544ZM23.745 9.274l-1.241-.31.815.989c.116-.233.252-.466.427-.68ZM23.047 13.813l-.893.854 1.223-.155a3.786 3.786 0 0 1-.33-.699ZM25.587 7.838l-.95-.892.232 1.26c.233-.135.466-.27.718-.368ZM22.756 12.184c0-.252.02-.485.058-.718l-1.222.31 1.164.466v-.058ZM23.144 10.302h-1.261l1.028.737c.039-.252.116-.485.233-.737ZM22.776 12.65l-1.087.6 1.223.156c-.058-.252-.117-.504-.136-.757ZM31.68 9.953l.816-.99-1.242.31c.155.214.31.447.427.68ZM26.015 6.403l-.078 1.28c.253-.097.505-.155.776-.194l-.698-1.086ZM47.103 37.792h-1.998c-.893.291-1.572 1.048-1.65 2.076-.038.466.098 1.125.699 1.145a.723.723 0 0 0 .66-.563c.077-.29.31-.524.64-.543.563.02.737.64.698 1.106-.097 1.358-1.144 2.211-2.425 2.23-3.822-.019-5.8-4.617-9.195-5.45h-1.999c-.892.29-1.571 1.047-1.649 2.075-.039.466.097 1.125.699 1.145a.723.723 0 0 0 .66-.563c.077-.29.31-.524.64-.543.562.02.737.64.698 1.106-.097 1.358-1.145 2.211-2.425 2.23-3.822-.019-5.8-4.617-9.196-5.45h-1.998c-.893.29-1.572 1.047-1.65 2.075-.038.466.098 1.125.7 1.145a.723.723 0 0 0 .659-.563c.077-.29.31-.524.64-.543.563.02.737.64.698 1.106-.097 1.358-1.144 2.211-2.425 2.23-3.822-.019-5.8-4.617-9.195-5.45h-1.94c-.893.29-1.572 1.047-1.65 2.075-.038.466.098 1.125.699 1.145a.723.723 0 0 0 .66-.563c.077-.29.31-.524.64-.543.562.02.737.64.698 1.106-.097 1.358-1.144 2.211-2.425 2.23-2.173-.019-3.764-1.513-5.335-2.948-.02-.02-.33-.272-.33-.291v18.682c0 1.514.155 2.775 1.572 3.609.562.33 1.571.679 2.211.679h18.12l.194.02c1.358.096 2.639.484 3.57 1.532.698.795 1.106 1.92 1.416 3.007.272-.931.602-1.862 1.145-2.62.97-1.357 2.425-1.94 4.054-1.94H50.77c.562 0 1.493-.31 1.998-.562 1.59-.795 1.785-2.095 1.785-3.725V42.895c-.02 0-.33-.136-.33-.136-2.58-1.203-4.385-4.307-7.12-4.967ZM32.108 11.04l1.009-.738h-1.261c.096.252.194.485.252.737ZM28.962 6.402l-.698 1.087c.271.039.524.116.776.194l-.078-1.28ZM31.002 8.983l.543-1.164-1.125.62c.213.175.407.35.582.544ZM30.341 6.946l-.95.892c.252.117.485.233.698.388l.252-1.28ZM29.992 16.2l.99.717-.369-1.164c-.213.175-.407.33-.62.447ZM32.088 13.406l1.222-.155-1.086-.602c-.04.253-.078.505-.136.757ZM30.922 15.462l1.144.447-.66-1.029c-.154.194-.31.388-.484.582ZM31.621 14.492l1.222.156-.892-.854a3.859 3.859 0 0 1-.33.698ZM23.59 14.86l-.66 1.03 1.144-.447a4.829 4.829 0 0 1-.485-.582ZM32.244 12.184v.039l1.164-.466-1.223-.31c.04.252.059.485.059.737Z"/>
        <path d="M.406.408v27.47H6.42v-3.53h3.745v3.53h5.18v-3.53h3.744v3.53h5.18v-3.53h3.744v3.53h5.18v-3.53h3.744v3.53h5.18v-3.53h3.744v3.53h5.122V24.31h3.57V.408H.406Zm37.773 15.19-4.52-.562 3.317 3.123-4.23-1.668 2.445 3.84-3.686-2.676 1.416 4.326-2.91-3.512.291 4.54-1.94-4.113-.853 4.462-.854-4.462-1.94 4.113.29-4.54-2.91 3.512 1.417-4.326-3.686 2.677 2.444-3.841-4.229 1.668 3.298-3.123-4.52.562 3.996-2.192-4.52-.563 4.404-1.125-4.23-1.668h4.56l-3.686-2.678 4.404 1.126-2.91-3.512 3.996 2.192-1.94-4.112 3.317 3.123-.853-4.462L25.8 5.549l.291-4.54 1.417 4.326 1.396-4.326.291 4.54 2.425-3.841-.853 4.462 3.317-3.124-1.94 4.113 3.997-2.192-2.91 3.511 4.404-1.125-3.687 2.677h4.56l-4.23 1.669 4.404 1.125-4.52.563 4.016 2.211Z"/>
        <path d="m25.316 17.635.776-.931c-.232-.078-.465-.175-.698-.272l-.078 1.203ZM24.016 16.917l.989-.717c-.213-.136-.407-.291-.601-.447l-.388 1.164ZM26.75 18.004l.505-1.087c-.252-.02-.505-.039-.737-.097l.232 1.184ZM28.247 18.004l.232-1.184a4.798 4.798 0 0 1-.737.097l.505 1.087ZM27.49 6.228l-.408 1.222c.136-.02.272-.02.407-.02.136 0 .272 0 .408.02l-.408-1.222ZM28.904 16.704l.776.931-.077-1.203c-.233.097-.466.194-.699.272Z"/>
      </g>
      <g fill="#F0E02E">
        <path d="m21.223 13.192 1.338-.756-1.416-.563-3.395.873 3.473.446ZM21.67 14.706l1.125-1.048-1.513-.194-3.065 1.688 3.453-.446ZM21.805 14.977l-2.541 2.386 3.24-1.28.814-1.3-1.513.194ZM22.677 16.297l-1.863 2.948 2.833-2.056.466-1.455-1.436.563ZM23.881 17.364l-1.086 3.317 2.231-2.677.097-1.533-1.242.893ZM25.297 18.1l-.233 3.492 1.494-3.162-.29-1.513-.97 1.183ZM26.85 18.47l.64 3.414.66-3.415-.66-1.396-.64 1.396ZM28.44 18.43l1.474 3.163L29.7 18.1l-.97-1.183-.292 1.513ZM29.972 18.004l2.231 2.677-1.086-3.317-1.242-.893.097 1.533ZM31.35 17.189l2.833 2.056-1.882-2.948-1.416-.563.465 1.455ZM32.494 16.083l3.24 1.28-2.541-2.386-1.533-.194.834 1.3ZM33.31 14.706l3.473.446-3.065-1.688-1.533.194 1.126 1.048ZM31.756 13.503a4.12 4.12 0 0 0 .194-1.087v-.252c0-.291-.02-.582-.078-.873v-.039a4.946 4.946 0 0 0-.35-1.028l-.019-.02c-.155-.33-.349-.64-.582-.911l-.02-.02a5.554 5.554 0 0 0-.775-.737h-.058a4.328 4.328 0 0 0-.931-.504h-.02l-.02-.02a4.728 4.728 0 0 0-1.027-.271h-.04a4.754 4.754 0 0 0-.523-.04c-.175 0-.35.02-.524.04h-.039c-.349.039-.698.136-1.028.271l-.039.02h-.02c-.329.136-.64.31-.93.504l-.04.02a4.01 4.01 0 0 0-.775.737l-.058.02a4.05 4.05 0 0 0-.582.911l-.02.02c-.155.33-.271.678-.349 1.028v.019a4.428 4.428 0 0 0-.078.873v.253c.02.368.078.736.194 1.086.117.349.272.698.466 1.008v.02c.194.31.427.601.698.853l.02.02c.271.252.562.485.892.66l.02.019c.33.175.66.31 1.028.407h.039c.349.097.717.136 1.086.136h.02c.368 0 .737-.039 1.086-.136h.039c.349-.097.698-.232 1.028-.407l.02-.02c.33-.174.62-.407.892-.66l.02-.019c.27-.252.503-.543.697-.853v-.02c.195-.31.35-.66.466-1.008h.02ZM31.97 10.03h1.533l2.813-2.056-3.375.873-.97 1.183ZM29.312 7.547l1.125-1.048.64-3.434-1.862 2.95.097 1.532ZM25.685 7.547l.097-1.533L23.9 3.065l.66 3.434 1.125 1.048ZM23.027 10.03l-.99-1.183-3.375-.873 2.833 2.056h1.532ZM22.64 11.214l-1.242-.912h-3.492l3.26 1.28 1.474-.368ZM22.192 8.614l1.494.368-.66-1.377-3.046-1.688 2.212 2.697ZM24.598 8.148l-.29-1.513-2.542-2.386L23.24 7.39l1.358.757ZM26.053 5.937l.814 1.3.486-1.456-1.087-3.317-.213 3.473ZM28.11 7.236l.834-1.3-.232-3.472-1.067 3.317.465 1.455ZM30.69 6.635l-.292 1.513 1.34-.757L33.23 4.25l-2.542 2.386ZM31.291 8.982l1.494-.368 2.23-2.697-3.064 1.688-.66 1.377ZM33.58 10.302l-1.242.911 1.494.369 3.24-1.28H33.58ZM32.418 12.436l1.358.757 3.453-.447-3.375-.873-1.436.563ZM54.572 24.58v3.298h-3.299V24.58h3.298ZM45.61 24.638v3.201h-3.202v-3.2h3.201ZM36.666 24.638v3.201h-3.182v-3.2h3.182ZM27.74 24.638v3.201h-3.2v-3.2h3.2ZM18.816 24.638v3.201h-3.2v-3.2h3.2ZM9.894 24.638v3.201h-3.2v-3.2h3.2ZM8.166 31.04H.406v-2.754h7.76v2.755ZM17.09 31.04H8.536v-2.754h8.556v2.755ZM26.015 31.04h-8.556v-2.754h8.556v2.755ZM34.938 31.04h-8.555v-2.754h8.555v2.755ZM43.882 31.04h-8.556v-2.754h8.556v2.755ZM52.807 31.04h-8.555v-2.754h8.555v2.755ZM54.57 31.04h-1.396v-2.754h1.397v2.755ZM46.832 34.203h7.76v-2.755h-7.76v2.755ZM37.906 34.203h8.556v-2.755h-8.556v2.755ZM28.963 34.203h8.555v-2.755h-8.555v2.755ZM20.04 34.203h8.555v-2.755h-8.556v2.755ZM11.113 34.203h8.556v-2.755h-8.556v2.755ZM2.191 34.203h8.556v-2.755H2.191v2.755ZM.406 34.203h1.397v-2.755H.406v2.755ZM8.166 37.365H.406V34.61h7.76v2.755ZM17.09 37.365H8.536V34.61h8.556v2.755ZM26.015 37.365h-8.556V34.61h8.556v2.755ZM34.938 37.365h-8.555V34.61h8.555v2.755ZM43.882 37.365h-8.556V34.61h8.556v2.755ZM54.57 37.365h-1.396V34.61h1.397v2.755ZM52.807 37.365h-8.555V34.61h8.555v2.755ZM.406 37.792v1.901l.524.408c1.455 1.319 3.046 2.89 5.16 2.871 2.29-.02 2.542-2.774 1.708-2.794-.194 0-.33.175-.369.33-.33 1.145-2.017 1.067-1.901-.679.058-1.009.543-1.494 1.203-2.056H.406v.02ZM10.32 37.792c.02.02.582.31.621.31 2.658 1.514 4.54 4.87 7.702 4.87 2.29-.02 2.541-2.775 1.707-2.794-.194 0-.33.175-.368.33-.33 1.145-2.018 1.067-1.901-.68.058-.989.543-1.493 1.183-2.056H10.32v.02ZM22.91 37.792c.039.02.602.33.64.35 2.62 1.532 4.501 4.85 7.644 4.83 2.29-.02 2.542-2.774 1.707-2.794-.194 0-.33.175-.368.33-.117.408-.466.757-.931.757-1.223 0-1.32-2.057-.175-3.143.039-.02.369-.33.388-.35H22.91v.02ZM35.482 37.792c.02.02.524.291.544.31 2.657 1.514 4.559 4.89 7.721 4.87 2.29-.02 2.541-2.774 1.707-2.794-.194 0-.33.175-.368.33-.33 1.145-2.018 1.067-1.902-.679.059-1.028.544-1.494 1.203-2.056h-8.905v.02ZM48.074 37.792c.02.02.505.291.524.31 2.095 1.184 3.783 3.687 5.995 4.501v-4.811h-6.519Z"/>
      </g>
    </g>
    <path fill="#000" d="M26.732 44.912c.214-.077.427-.097.64-.077.292.038.563.232.874.213.31 0 .562-.213.873-.233.29-.02.562.02.834.117.388.135.737.368 1.144.407.35.039.68-.078 1.029-.078.465-.019.93.175 1.319.447.175.135.368.271.582.31.29.039.582 0 .873 0 .757.02 1.513.291 2.037.854.213.213.35.485.466.756.776.33 1.513.68 2.27 1.067v.505a30.246 30.246 0 0 0-2.135-.99c.04.796-.213 1.572-.62 2.25-.33.563-.563 1.203-.486 1.844.097.873.582 1.649 1.067 2.347.156.233.37.427.583.601v-.388c.29.156.29.524.465.757.194.194.427.369.621.543.136.097.252.253.446.233.854-.02 1.746-.097 2.561-.368.504-.175.99-.447 1.261-.932.117-.174.058-.388.02-.582-.136-.038-.272-.077-.389-.155-.135-.097-.194-.252-.33-.368-.387-.059-.775.058-1.144.194-.31-.815-.582-1.65-.892-2.464a4.358 4.358 0 0 1 2.347.97c.136.116.252.233.407.33.175.116.408.155.544.33.116.193.136.426.271.6.35.486.621 1.029.718 1.61.097.486.058 1.01-.194 1.456-.33.601-.931 1.009-1.533 1.3-.64.33-1.338.504-2.037.679.31.31.64.62.951.95-.136.194-.33.388-.601.369-.097-.058-.175-.155-.272-.252-.252-.291-.524-.582-.776-.893-.233.04-.466.097-.698.136.155.485.349.97.504 1.455-.213.097-.446.175-.66.039-.174-.446-.271-.931-.407-1.377l-.99.174c.292.427.621.854.912 1.28.097.098.097.311-.058.33-.136.059-.31 0-.368-.135-.31-.466-.602-.932-.893-1.417-.388.059-.776.097-1.183.156.252.407.523.814.776 1.241.077.117.155.272.077.408-.058.116-.213.116-.33.077-.155-.038-.213-.194-.29-.31-.233-.446-.466-.912-.718-1.358-.408.039-.815.097-1.223.136.195.388.408.776.602 1.183.058.117.136.252.058.369-.078.174-.368.194-.427 0-.233-.485-.446-1.01-.66-1.494-.426.02-.853.077-1.3.097.175.485.428.931.583 1.435-.058.233-.369.233-.543.136-.214-.485-.33-1.009-.485-1.513-.466-.02-.932.039-1.397.058.097.369.213.737.33 1.106.019.097.058.213.058.33-.117.175-.31.078-.466.039-.116-.485-.233-.97-.33-1.455-.465.019-.93.038-1.396.038.058.466.194.932.194 1.397-.156.136-.35.078-.505.02-.039-.466-.097-.932-.136-1.397-.446 0-.911 0-1.358.02.02.387.059.775.04 1.183-.04.271-.486.31-.563.038-.02-.407.038-.814.058-1.222-.466 0-.931-.02-1.397-.02-.039.37-.039.719-.097 1.087-.058.272-.446.233-.543.02.02-.369.136-.738.174-1.106-.465-.02-.93-.039-1.396-.039-.059.291-.117.582-.214.873-.058.214-.466.291-.504.02.058-.311.194-.621.271-.912-.446-.02-.892-.04-1.319-.078-.097.272-.175.582-.31.834-.175.175-.505.04-.485-.213.058-.233.174-.446.271-.68a26.749 26.749 0 0 0-1.241-.096c-.097.194-.136.427-.291.601-.136.058-.33.058-.427-.077-.039-.214.136-.388.194-.582l-1.203-.117c-.078.117-.116.272-.252.35-.194.077-.33-.098-.446-.233.019-.078.058-.136.077-.214a64.15 64.15 0 0 1-7.159-1.222c-.368-.097-.737-.175-1.105-.291 1.047.078 2.172.175 3.162-.233.369-.136.718-.427.795-.815.078-.446-.155-.853-.426-1.202-.136-.175-.33-.33-.388-.563-.059-.291.058-.582.174-.834.078-.175.272-.31.446-.233.175.058.233.271.31.427-.077.116-.213.194-.213.349.078.097.194.155.31.213.64.272 1.3.563 1.94.835.35.174.757.097 1.145.116-.116-.175-.232-.369-.368-.524-.155-.116-.33-.194-.505-.29-.582-.311-1.144-.602-1.726-.913-.31-.174-.68-.252-1.028-.349-.389-.116-.757-.252-1.145-.31-.02.368.29.62.466.911-.447-.135-.893-.29-1.28-.543-.273-.194-.525-.465-.602-.795-.078-.35.02-.699.174-1.009.272-.563.699-1.028 1.126-1.474-.059-.02-.156-.078-.214-.097.136-.175.291-.31.466-.408 1.377-.679 2.755-1.358 4.151-1.96.214-.096.466-.154.582-.348.31-.427.757-.757 1.261-.932.35-.135.718-.174 1.067-.33.291-.116.563-.29.835-.465.349-.233.776-.35 1.203-.35.29-.019.582.04.853-.077.388-.116.64-.446.99-.64.33-.175.717-.213 1.086-.155.213.039.427.116.66.116.252 0 .485-.058.717-.136.291-.019.505-.252.776-.349Zm1.455.272c-.29 0-.523-.175-.814-.214-.214-.038-.447 0-.66.078-.233.097-.408.291-.66.369-.349.116-.718.213-1.086.135-.252-.058-.485-.135-.737-.116-.388 0-.738.175-1.01.427-.29.252-.64.465-1.027.465-.369 0-.757-.019-1.126.097-.465.136-.834.485-1.28.68-.427.213-.892.232-1.32.426a2.696 2.696 0 0 0-1.047.815c.214-.078.446-.175.66-.252 3.046-1.184 6.266-1.998 9.525-2.134v-.446a.618.618 0 0 1 .524 0v.446c2.62-.058 5.238.31 7.721 1.144.466.156.932.33 1.397.505-.31-.757-1.067-1.242-1.843-1.378-.427-.097-.873-.038-1.319-.058-.252 0-.465-.155-.66-.29-.349-.272-.775-.466-1.241-.466-.35-.02-.68.135-1.028.097-.64-.04-1.164-.524-1.824-.544-.388-.097-.737.233-1.145.214Zm-.446.349v.504c-2.677.097-5.296.66-7.838 1.494-2.308.757-4.52 1.766-6.693 2.872-.33.174-.679.29-.93.543.29.02.581-.058.833-.214.582-.349 1.203-.66 1.805-.95a35.166 35.166 0 0 1 3.627-1.552c2.95-1.106 6.053-1.824 9.216-1.902-.02 3.395.019 6.771 0 10.166.097-.116.174-.213.271-.33 0-3.278 0-6.576.02-9.855.95-.02 1.9.02 2.851.116 3.027.291 5.976 1.242 8.672 2.62v-.253c-1.474-.776-3.026-1.435-4.617-1.882-2.23-.66-4.559-.93-6.887-.873v-.485c-.136 0-.233-.019-.33-.019Zm-2.871 1.164a454.787 454.787 0 0 0 2.037 3.182c.058.116.175.155.291.213.155-1.222.272-2.425.407-3.647-.912.039-1.823.116-2.735.252Zm3.337-.272c.95 1.63 1.901 3.24 2.852 4.87.582.271 1.164.563 1.746.834-.621-1.862-1.242-3.725-1.863-5.607-.912-.058-1.823-.116-2.735-.097Zm2.89.136c.621 1.901 1.261 3.783 1.882 5.665.544.291 1.106.582 1.65.892l-.292-5.529c-.02-.155 0-.31-.039-.446a26.434 26.434 0 0 0-3.2-.582Zm-8.497.563c.776.95 1.533 1.901 2.309 2.832.64-.039 1.3-.02 1.94.039-.699-1.106-1.416-2.192-2.115-3.298a37.73 37.73 0 0 0-2.134.427Zm5.568-.485c.058 1.203.136 2.425.233 3.628.834.271 1.649.601 2.444.93a393.392 393.392 0 0 0-2.677-4.558Zm-7.198.912c.621.95 1.242 1.9 1.863 2.832.272-.116.543-.233.834-.29.369-.06.737-.079 1.106-.117a140.688 140.688 0 0 1-2.134-2.639c-.058-.058-.116-.136-.175-.174-.523.097-1.009.252-1.494.388Zm13.445-.369c.097 1.998.213 4.016.31 6.014.912.524 1.824 1.067 2.736 1.63-.524-.737-1.029-1.533-1.145-2.445-.097-.698.155-1.377.505-1.96.388-.678.64-1.454.582-2.23-.97-.408-1.96-.737-2.988-1.009Zm-15.637 1.086c1.727 2.25 3.473 4.501 5.2 6.752.581.077 1.183.116 1.784.097-.097-.136-.174-.291-.29-.408-.195-.136-.428-.213-.64-.33-.855-.446-1.67-.989-2.29-1.707-.31-.368-.602-.814-.543-1.319.058-.407.388-.698.718-.892-.524-.796-1.029-1.591-1.553-2.367-.116-.155-.194-.33-.33-.485-.698.155-1.377.407-2.056.66Zm8.575 1.805c.058 0 .194.02.272.02 0-.758.02-1.514 0-2.29-.136.756-.194 1.513-.272 2.27ZM17.11 48.928c-.214.582-.136 1.222.077 1.785.33.834.951 1.513 1.65 2.076a10.024 10.024 0 0 0 4.966 2.192c-1.727-2.212-3.434-4.443-5.16-6.654-.505.194-1.048.349-1.533.601Zm11.039.136c0 .349-.02.679 0 1.028 0 .078.038.136.097.175 0-.524-.078-1.029-.078-1.552 0-.117-.02-.233-.039-.33-.02.213.02.446.02.679Zm-13.445.95c-.407.175-.563.64-.776.99 2.483 1.707 4.967 3.453 7.45 5.16.194.117.369.33.62.31 1.01.02 1.999.02 3.008.04-.291-.388-.602-.776-.912-1.184a1.163 1.163 0 0 0-.213-.233c-.117-.038-.253-.058-.37-.077a9.989 9.989 0 0 1-5.431-2.794c-.543-.563-.99-1.242-1.145-1.998-.097-.408-.058-.854.039-1.261a40.47 40.47 0 0 0-2.27 1.047Zm9.04.175c-.31.039-.581.175-.853.291.815 1.3 1.669 2.56 2.503 3.86.077.117.136.253.271.311.33.155.68.252 1.01.369.077-.796.174-1.572.251-2.367-.698-.854-1.396-1.727-2.095-2.58-.35.038-.718.058-1.086.116Zm1.262-.116c.64.795 1.3 1.59 1.94 2.386.077-.602.136-1.203.194-1.804.039-.214-.136-.369-.233-.544-.62-.038-1.261-.058-1.901-.038Zm2.114.077c-.038.097 0 .136.117.117.02-.097-.02-.136-.117-.117Zm.175.04c-.039.31.155.542.33.775v-.757c-.097 0-.214 0-.33-.019Zm-13.852.465c.136.097.252.174.388.271.136-.233.252-.446.388-.66-.271.137-.524.253-.776.389Zm14.706-.369c0 .466-.02.931 0 1.397 0 .194.155.33.252.485l-.117-1.804c-.038-.02-.116-.058-.135-.078Zm.252.117c.039.523.077 1.047.097 1.59.02.175 0 .369.116.524L31 56.067c.156.04.33.059.466.156s.194.232.272.368c.077-.136.174-.31.33-.388a.677.677 0 0 1 .737.02c.116.077.194.232.271.349.078-.117.155-.252.272-.33.116-.078.252-.116.369-.155-.873-1.514-1.766-3.027-2.639-4.54-.058-.116-.155-.174-.272-.233-.814-.349-1.61-.66-2.405-.911Zm-6.286.93c-.077.486.233.932.543 1.3.737.835 1.688 1.417 2.697 1.882-.854-1.319-1.707-2.638-2.58-3.957-.291.155-.602.407-.66.776Zm-10.088.253c-.291.33-.563.679-.757 1.086-.136.272-.213.602-.155.912.058.252.233.485.446.64.31.233.66.388 1.01.524-.117-.174-.253-.35-.292-.563-.02-.096.078-.232.194-.232.136 0 .272.038.388.077.427.136.873.272 1.3.388-.35-.426-.66-.911-.737-1.455-.097-.562 0-1.164.232-1.688-.116-.174-.232-.349-.368-.543-.446.214-.912.466-1.261.854Zm15.249-.912c-.059.64-.156 1.3-.194 1.94.194.233.368.446.562.68v-1.825c.02-.31-.213-.543-.368-.795Zm-13.639.31c-.039.097 0 .136.117.117.019-.117 0-.155-.117-.117Zm.136.136c.116.291.33.544.504.815.835 1.222 1.688 2.444 2.522 3.686.156.233.427.31.66.427.291.136.543.369.873.369 1.086.019 2.153.019 3.24.038-.388-.29-.796-.562-1.203-.834-1.96-1.358-3.938-2.735-5.898-4.093-.213-.136-.427-.33-.698-.408Zm-.213 1.785c.096.524.368 1.009.717 1.397.175.213.427.31.66.427.582.29 1.164.601 1.746.912-.95-1.436-1.94-2.833-2.91-4.268a2.466 2.466 0 0 0-.213 1.532Zm17.596-1.416c.853 1.494 1.746 2.988 2.6 4.462.077.155.252.213.387.291-.407-1.242-.815-2.464-1.222-3.706-.039-.116-.078-.252-.213-.31a23.183 23.183 0 0 0-1.552-.737Zm9.758.446c.252.718.504 1.436.776 2.154.35-.136.718-.194 1.106-.175.02-.155.039-.35.136-.485.097-.155.271-.214.407-.291-.66-.602-1.494-1.067-2.425-1.203Zm-12.785.097v1.96c.136.155.252.31.388.446l-.116-1.882c0-.194-.155-.35-.272-.524Zm4.89.369c.465 1.416.93 2.832 1.396 4.229.116 0 .252 0 .368.02-.058-1.048-.116-2.096-.155-3.143-.02-.097.02-.233-.097-.291-.485-.272-.99-.544-1.513-.815Zm-4.463.252.116 1.804c0 .155.117.291.214.407.29.35.582.68.873 1.029.194.252.524.368.66.66a.909.909 0 0 1 .465-.466c-.795-1.145-1.552-2.29-2.328-3.434Zm-1.513.136-.233 2.25c.078.039.175.078.252.117-.058 0-.194 0-.271.019-.04.33-.078.679-.117 1.009.155-.039.31-.117.485-.078.175.02.33.155.466.252-.02-.95 0-1.9 0-2.851-.194-.233-.388-.485-.582-.718Zm16.277.523c-.31.098-.485.486-.33.777.116.31.543.426.815.232.29-.194.33-.66.077-.892a.593.593 0 0 0-.562-.117Zm-8.575.04c.038 1.105.116 2.192.174 3.297.602 0 1.203.02 1.805.02.019-.078.058-.175.077-.252.427.019.854.019 1.28.019-.194-.233-.407-.446-.6-.679a.705.705 0 0 1-.137-.33c.447.136.718.563 1.067.854-.077-.252-.097-.543-.232-.776a3.408 3.408 0 0 0-.835-.64c-.873-.505-1.726-1.029-2.6-1.514Zm8.866 1.202c.058.233.077.485-.058.68-.35.562-.97.872-1.591 1.027-1.067.291-2.173.291-3.279.291.466.466.95.932 1.436 1.397.232.233.465.466.698.68l.291.29c.873-.194 1.746-.446 2.522-.912.427-.271.834-.601 1.087-1.067.194-.388.252-.814.174-1.241-.097-.621-.388-1.184-.756-1.688a.778.778 0 0 1-.524.543Zm-15.462-.369v1.94h.504c-.02-.426-.058-.853-.078-1.28-.038-.29-.29-.465-.426-.66Zm-14.803.621c-.097.253-.213.524-.116.796.097.174.232.29.349.446.252.33.485.737.446 1.183-.058.408-.35.738-.698.912-.64.33-1.397.388-2.095.408 2.328.543 4.675.93 7.061 1.222.155-.233.31-.446.466-.68h.02c.232-.329.445-.678.678-1.008-.077-.058-.155-.136-.252-.194.078-.078.155-.194.272-.213.213-.059.523.019.523.29l-.077-.019c-.078.058-.194.117-.233.214-.155.31-.33.62-.466.95-.116.233-.232.446-.349.68.408.038.815.096 1.222.116.117-.214.233-.447.35-.66.174-.33.368-.66.523-1.009.078-.097-.058-.174-.155-.194.02-.388.621-.388.776-.077a.81.81 0 0 0-.116.155h-.136c-.136.388-.31.756-.466 1.144-.077.233-.174.447-.271.66.427.039.834.078 1.26.097.098-.213.195-.427.292-.62.174-.389.388-.777.504-1.204h-.136c-.019-.038-.058-.135-.077-.174.174-.194.485-.252.698-.078.117.078.02.233-.058.31-.116-.038-.136.098-.175.175-.116.33-.232.66-.33 1.009a8.251 8.251 0 0 1-.213.64c.447.02.873.039 1.32.078.058-.194.135-.408.194-.621h.019c.116-.388.233-.795.369-1.183-.059 0-.136-.02-.194-.02a.825.825 0 0 1-.04-.213c.156-.233.602-.233.718.02 0 .135-.155.174-.232.251-.078.388-.194.776-.253 1.164-.038.194-.096.408-.135.602l1.377.058c.039-.194.058-.388.097-.601l.194-1.203a1.75 1.75 0 0 1-.174-.194c0-.194.252-.252.407-.252.136 0 .369.077.31.271-.077.078-.174.136-.252.194-.039.388-.058.796-.077 1.203 0 .194-.02.388-.04.582.466 0 .932 0 1.398.02 0-.195.019-.389.019-.583.039-.388.058-.795.058-1.183h-.058l-.175-.175c-.019-.097.04-.155.117-.194.194-.097.446-.077.601.097.039.136-.097.214-.174.291h-.04c0 .408.02.815.078 1.223 0 .174.02.368.02.543.446 0 .912 0 1.358-.02a4.757 4.757 0 0 1-.039-.523c-.02-.408-.058-.815-.116-1.223h-.02c-.077-.077-.233-.155-.194-.29.194-.195.543-.195.718.019.039.136-.116.194-.175.29h-.038c.097.408.135.816.213 1.223.039.175.058.35.097.524.466-.02.931-.02 1.377-.058-.038-.175-.077-.33-.097-.505-.097-.407-.155-.834-.31-1.241l-.078.019-.155-.155c-.039-.155.136-.233.252-.252.175-.04.427.019.485.213-.058.078-.116.155-.194.213.136.388.233.796.35 1.184.058.174.097.33.155.504.465-.02.912-.039 1.377-.077a3.54 3.54 0 0 1-.135-.485c-.117-.388-.253-.776-.37-1.164h-.038c-.116-.059-.272-.097-.291-.253.155-.271.602-.252.757 0-.04.097-.097.175-.155.253.155.388.31.756.485 1.144h.019c.058.155.136.31.194.466.427-.02.854-.058 1.28-.097-.058-.155-.136-.31-.194-.466-.155-.388-.31-.756-.485-1.125h-.058c-.097-.058-.233-.116-.252-.252.155-.233.524-.233.718-.058.058.116-.04.194-.097.271h-.04l.583 1.106c.097.155.174.31.252.466.407-.059.815-.097 1.222-.136-.077-.155-.155-.291-.233-.446-.174-.369-.368-.718-.562-1.067l-.078.019c-.097-.058-.194-.116-.213-.233.155-.252.601-.252.756 0l-.116.233c.213.33.427.679.64 1.009.097.136.194.29.291.427.388-.059.776-.097 1.164-.175-.097-.136-.174-.291-.271-.427-.194-.33-.388-.66-.621-.97l-.078.02c-.058-.078-.116-.136-.174-.214a.51.51 0 0 1 .66-.116c.116.058.096.194.077.29h-.136c.194.33.446.641.68.951.096.136.193.272.31.408.756-.136 1.493-.252 2.23-.446-.116-.117-.213-.253-.31-.369-.213-.252-.427-.485-.64-.737h-.02c-.387-.427-.756-.854-1.144-1.3-.058-.058-.116-.155-.233-.155-.407-.02-.815-.02-1.203-.039-.02.078-.039.175-.077.252-.796.02-1.61-.02-2.406-.02-.039.175-.078.37-.233.486a.675.675 0 0 1-.815.097c-.155-.078-.252-.252-.33-.388-.057.136-.135.271-.252.349a.699.699 0 0 1-.834-.02c-.116-.096-.174-.232-.233-.368-.077.136-.155.31-.29.388-.233.155-.563.155-.777-.02-.116-.077-.194-.232-.252-.349-.077.156-.174.31-.33.388-.252.156-.601.097-.814-.097-.078-.077-.136-.194-.194-.31-.078.155-.156.31-.31.388a.678.678 0 0 1-.738-.02c-.136-.077-.213-.232-.291-.368-.058.136-.136.272-.252.35a.699.699 0 0 1-.834-.02c-.117-.097-.175-.233-.253-.369-.077.175-.174.33-.33.427a.67.67 0 0 1-.873-.194c-.116-.155-.135-.35-.155-.524-2.735-.039-5.49-.077-8.225-.097-.233 0-.466.02-.68-.077-.698-.31-1.396-.602-2.095-.912-.155-.078-.349-.175-.349-.369.039-.136.136-.213.194-.33-.058-.097-.078-.233-.213-.252a.72.72 0 0 0-.369.35Zm12.339-.038c.077.116.155.232.213.33.194 0 .388-.02.582-.02-.252-.097-.524-.194-.795-.31Zm3.007.077c.02.446.039.893.097 1.339.097.116.194.252.29.388.078-.136.156-.272.292-.369.116-.077.252-.097.388-.136-.388-.407-.718-.834-1.067-1.222Zm9.7.718a1.987 1.987 0 0 0-.213-.524.75.75 0 0 0 .213.524Zm-14.318-.427c.33.446.68.873 1.01 1.32.096-.098.174-.195.29-.272.253-.155.621-.117.815.116.078.078.136.175.213.252.04-.058.098-.174.136-.213-.233-.388-.485-.737-.718-1.106-.582 0-1.163-.039-1.745-.097Zm1.902.078c.194.31.388.601.582.892.038-.31.058-.62.097-.931-.214.02-.447.039-.68.039Zm11.446.33c.155.232.33.426.524.62l3.259 3.667c.136.155.272.33.427.466.194.019.33-.136.465-.253-1.416-1.396-2.832-2.774-4.248-4.17a2.488 2.488 0 0 0-.427-.33Zm.912.077c.058.272.116.563.233.815.038.02.135.039.174.039-.116-.291-.174-.64-.407-.854Zm.29.272c.059.194.137.368.195.562.155 0 .29 0 .446-.019-.194-.175-.407-.369-.64-.543Zm-21.534.116c.078.136.175.272.253.408h.543c-.272-.136-.524-.272-.796-.408Zm8.498.233a.565.565 0 0 0-.408.563c0 .31.291.562.602.523.33-.019.582-.388.485-.698-.097-.291-.408-.485-.68-.388Zm1.319 0c-.272.078-.466.407-.369.679.058.233.31.427.563.388.31 0 .563-.291.524-.601-.02-.33-.408-.582-.718-.466Zm1.3 0c-.33.097-.485.524-.291.815.155.271.562.349.815.155.213-.155.271-.485.135-.718a.573.573 0 0 0-.66-.252Zm1.319.02c-.233.077-.388.349-.35.6.04.272.33.486.602.447.33-.02.582-.388.466-.698-.078-.291-.427-.485-.718-.35Zm1.397-.02a.544.544 0 0 0-.408.563c0 .271.253.523.524.523.31.02.602-.271.563-.582-.02-.349-.369-.601-.68-.504Zm1.3 0c-.291.097-.485.446-.35.737a.566.566 0 0 0 .777.272c.271-.136.368-.524.213-.776-.136-.194-.407-.31-.64-.233Zm1.319 0c-.252.078-.427.35-.369.601a.547.547 0 0 0 .563.466c.31 0 .563-.291.524-.601-.02-.33-.408-.582-.718-.466Zm-14.26 1.649c.117.116.233.078.37.02.096.019.193.038.29 0-.194-.195-.465-.175-.66-.02Zm1.61.097a.36.36 0 0 1 .04.136c.077-.039.155-.097.232-.155.078.038.156.097.233.135.059-.271-.368-.29-.504-.116Zm-1.24-.039c-.195.233-.35.485-.525.737-.31.466-.64.912-.93 1.378a.745.745 0 0 0 .348.174c.33-.66.66-1.319 1.01-1.959.038-.097.077-.213.096-.33Zm17.072.097c.077.058.194.058.29.039.136.058.253.078.37-.039a.585.585 0 0 0-.66 0Zm-14.24.078c.135.136.271.02.388-.039.038.039.116.097.155.136a.604.604 0 0 1 .078-.117.557.557 0 0 0-.621.02Zm12.649-.02c.038.04.097.136.136.175.038-.039.077-.097.116-.136.116.02.233.058.33.078-.059-.291-.369-.214-.582-.117Zm-14.104.156c-.369.698-.718 1.416-1.087 2.114-.039.078-.097.175-.058.272.097.02.213.02.31.02.35-.874.738-1.727 1.048-2.6-.078.038-.175.097-.213.194Zm3.046-.02c.116.175.271-.02.387-.077.04.038.117.135.156.174v-.155c-.175-.116-.427-.116-.543.058Zm9.506-.058c.058.058.116.097.155.155a.59.59 0 0 0 .136-.097c.077.02.155.039.213.058.02-.038.078-.116.097-.155a.81.81 0 0 0-.601.039Zm-11.059.543c-.29.64-.562 1.28-.853 1.92-.039.098-.097.195-.097.292.039.116.194.155.29.116.079-.077.098-.194.156-.29.194-.583.388-1.165.601-1.766.098-.291.214-.582.272-.873-.213.155-.271.407-.368.601Zm3.124-.485.136.136c.038-.039.116-.136.155-.175l.174.175c.04-.039.117-.116.156-.136a.595.595 0 0 0-.621 0Zm1.59.058.156.156c.039-.04.097-.117.136-.156.077.04.136.097.213.156.02-.04.058-.136.097-.175-.213-.078-.427-.078-.601.02Zm1.592.02c.019.039.077.097.097.136.058-.04.116-.097.194-.136.097.097.232.136.349.02a3.08 3.08 0 0 0-.388-.137.601.601 0 0 0-.252.117Zm1.571-.058c.02.038.078.135.097.174.039-.039.116-.097.136-.136.116.059.252.117.368.02-.155-.136-.388-.136-.601-.058Zm1.61-.02c.058.058.117.097.175.155.039-.019.097-.058.136-.077.058 0 .194.02.252.02l.02-.098c-.175-.136-.408-.077-.583 0Zm4.967-.116c.077.155.155.29.252.427.543.853 1.086 1.707 1.63 2.541.058.136.232.155.349.058.039-.097-.058-.174-.097-.233a226.157 226.157 0 0 1-1.63-2.25c-.155-.194-.271-.427-.504-.543Zm-1.572.077c.485 1.01 1.048 1.98 1.552 2.969.078.116.117.271.233.368.097.02.194.04.31.04.04-.253-.135-.467-.271-.66-.524-.815-1.028-1.65-1.552-2.464-.058-.136-.175-.194-.272-.253Zm-11.233.66c-.232.718-.446 1.436-.678 2.153a.51.51 0 0 0-.04.291c.137.078.311 0 .33-.155.156-.601.272-1.183.408-1.785.078-.368.194-.737.233-1.125-.136.175-.175.408-.252.621Zm1.688-.233-.465 2.62c0 .096-.078.27.058.33.097.077.29.018.29-.117.078-.699.117-1.417.175-2.115.02-.35.078-.679.059-1.028a.55.55 0 0 0-.117.31Zm3.201-.252c-.019.252.02.504.04.757.077.776.154 1.552.213 2.328.019.116 0 .213.058.33.116.058.233.019.33 0-.175-1.048-.35-2.096-.505-3.163.02-.116-.058-.194-.136-.252Zm1.591-.02c0 .136.02.272.058.408.214.912.427 1.824.64 2.755.02.078.04.175.078.252.078.078.194.02.291.02-.29-1.048-.601-2.076-.892-3.124a.561.561 0 0 0-.175-.31Zm1.669 0c.038.253.136.486.213.718.291.893.563 1.785.854 2.697.136 0 .271-.02.407-.058-.407-1.009-.834-1.979-1.241-2.988a1.192 1.192 0 0 0-.233-.368Zm1.571-.058c.058.233.175.466.272.68.388.892.795 1.804 1.183 2.696h.233c.078-.233-.097-.427-.194-.64l-1.106-2.095c-.116-.214-.213-.447-.388-.64Zm-6.402.33c-.02.291-.058 1.145-.078 1.28 0 .563-.058 1.145-.058 1.708 0 .155.252.194.33.078.078-.078.058-.195.058-.291-.058-1.01-.097-2.018-.155-3.008a.321.321 0 0 0-.097.233Zm11.892.854c.136.446.233.912.388 1.358.156.058.33 0 .485-.02-.155-.485-.33-.95-.504-1.416-.097.02-.233.058-.369.078Z"/>
    <path fill="#000" d="M18.877 56.688c.232-.02.485-.039.717 0 .194.039.175.369-.02.388-.251.02-.484.02-.736 0-.155-.077-.136-.349.038-.388Zm-.078.175c.233.174.543.116.815.077-.02-.038-.04-.097-.059-.116a1.668 1.668 0 0 0-.756.039ZM20.117 56.688c.232-.02.485-.039.717 0 .175.039.175.369-.019.388-.252.02-.485.02-.737 0-.155-.077-.136-.349.039-.388Zm-.078.175c.233.174.543.116.815.077-.02-.038-.039-.097-.058-.116a1.668 1.668 0 0 0-.757.039ZM21.34 56.727c.233-.078.486-.04.738-.04.233-.018.271.35.058.389a2.349 2.349 0 0 1-.737 0c-.155-.039-.175-.252-.059-.35Zm.059.077v.155h.717v-.155H21.4ZM22.581 56.727c.233-.078.485-.04.737-.04.214-.018.272.35.058.389a2.349 2.349 0 0 1-.737 0c-.155-.039-.194-.252-.058-.35Zm.058.077v.155h.718v-.155h-.718ZM23.901 56.727c.155-.078.33-.039.485-.058.155 0 .35-.02.446.136.02.116-.02.252-.136.271-.252.02-.485.02-.737 0a.204.204 0 0 1-.058-.35Zm.097.097a.615.615 0 0 0-.097.116c.272.04.543.059.795 0a.402.402 0 0 1-.038-.116 2.502 2.502 0 0 0-.66 0ZM15.327 57.309c-.059-.175-.097-.407.097-.505.174-.058.271.136.271.291 0 .136-.097.214-.174.291a.41.41 0 0 0-.194-.077Zm.097-.078c.213-.02.136-.252.077-.388-.077.136-.077.272-.077.388ZM34.785 56.902c.233-.02.485-.04.737 0 .175.077.155.349-.039.388-.252.019-.504.038-.756-.02-.175-.077-.136-.349.058-.368Zm-.039.116v.155c.233 0 .466.02.699 0 .019-.039.038-.097.058-.136-.252-.019-.505-.019-.757-.019ZM36.087 56.902c.233-.04.465-.02.698 0 .136.019.214.194.136.31-.058.097-.175.097-.271.097-.194 0-.37.02-.563-.02-.194-.038-.194-.349 0-.387Zm.02.135-.059.059c.02.019.078.038.116.058.253.02.524.058.738-.078-.272-.097-.544-.077-.796-.039ZM37.328 56.901c.233-.039.465-.02.698 0 .214.02.214.369 0 .388-.233.02-.465.02-.698 0-.175-.039-.194-.35 0-.388Zm-.058.194c.252.136.601.117.853 0-.271-.116-.601-.136-.853 0Z"/>
    <path fill="#EFE02E" d="M28.187 45.184c.408.02.757-.291 1.164-.252.66 0 1.184.504 1.824.543.35.038.679-.117 1.028-.097.446.02.873.194 1.242.465.194.155.407.291.66.291.426.02.872-.038 1.319.059.795.135 1.532.64 1.843 1.377-.466-.175-.932-.35-1.397-.505a22.205 22.205 0 0 0-7.722-1.144v-.446a.618.618 0 0 0-.523 0v.446c-3.279.155-6.48.95-9.526 2.134-.213.078-.446.175-.66.252.272-.35.64-.64 1.048-.815.427-.194.893-.213 1.32-.426.446-.195.814-.544 1.28-.68.368-.116.756-.097 1.125-.097.388 0 .737-.213 1.028-.465.291-.233.64-.427 1.009-.427.252-.02.504.058.737.117.369.077.737-.02 1.087-.136.232-.078.426-.272.66-.369a1.27 1.27 0 0 1 .659-.078c.252.078.504.233.795.253Z"/>
    <path fill="#EFE02E" d="M24.871 46.697a26.06 26.06 0 0 1 2.736-.252c-.136 1.222-.253 2.444-.408 3.647-.116-.039-.233-.097-.29-.213-.68-1.067-1.359-2.115-2.038-3.182ZM28.207 46.425c.912-.02 1.824.039 2.735.117.621 1.862 1.242 3.724 1.863 5.606-.582-.29-1.164-.562-1.746-.834l-2.852-4.889ZM31.098 46.561a22.36 22.36 0 0 1 3.181.582c.058.136.04.291.04.446l.29 5.53a44.423 44.423 0 0 0-1.649-.893c-.62-1.882-1.26-3.764-1.862-5.665ZM22.602 47.123c.698-.155 1.416-.31 2.134-.407.698 1.106 1.416 2.192 2.114 3.298a12.96 12.96 0 0 0-1.94-.039c-.776-.97-1.552-1.9-2.308-2.852ZM28.168 46.639a952.616 952.616 0 0 1 2.677 4.578c-.795-.35-1.61-.679-2.444-.931-.078-1.222-.175-2.425-.233-3.647ZM20.97 47.55c.486-.135.97-.29 1.475-.388l.175.175c.717.873 1.416 1.746 2.134 2.638-.369.02-.737.059-1.106.117-.291.058-.563.174-.834.29-.602-.95-1.223-1.9-1.843-2.832ZM34.416 47.182c1.009.271 2.018.601 2.988.99.058.775-.194 1.551-.582 2.23-.35.582-.602 1.28-.505 1.96.117.912.621 1.707 1.145 2.444l-2.736-1.63c-.097-1.978-.194-3.977-.31-5.994ZM18.78 48.268c.678-.233 1.357-.485 2.056-.679.136.136.233.31.33.485.523.796 1.028 1.59 1.552 2.367-.33.213-.66.485-.718.892-.058.505.233.951.543 1.32.64.717 1.436 1.28 2.29 1.707.213.116.445.194.64.33.116.116.193.271.29.407-.601 0-1.183-.039-1.784-.097-1.727-2.25-3.473-4.481-5.2-6.732ZM27.354 50.072c.077-.756.135-1.513.252-2.25.02.757 0 1.513 0 2.29a1.135 1.135 0 0 0-.253-.04ZM17.11 48.928c.486-.252 1.029-.427 1.533-.62 1.727 2.21 3.434 4.442 5.16 6.653-1.823-.232-3.55-1.028-4.966-2.192-.698-.562-1.319-1.222-1.649-2.076-.213-.543-.29-1.183-.077-1.765ZM28.15 49.064c0-.233-.039-.466 0-.699.02.117.039.214.039.33 0 .524.078 1.028.078 1.552-.078-.039-.098-.097-.098-.175-.038-.33-.019-.678-.019-1.008ZM13.443 50.654c.253-.135.524-.271.776-.388a7.355 7.355 0 0 0-.388.66 2.772 2.772 0 0 1-.388-.272ZM12.027 51.586c.35-.388.815-.64 1.28-.854.117.175.253.35.37.543-.214.524-.33 1.126-.234 1.688.097.543.388 1.028.738 1.455-.447-.116-.873-.252-1.3-.388-.136-.039-.252-.077-.388-.077-.117-.02-.214.116-.194.232.039.214.174.389.29.563-.348-.136-.717-.272-1.008-.524a1.145 1.145 0 0 1-.446-.64c-.058-.31.02-.62.155-.912.175-.407.446-.756.737-1.086ZM13.638 50.984c.097-.02.136.02.116.117-.097.02-.136-.02-.116-.117ZM40.912 51.935c.912.136 1.746.582 2.425 1.203-.155.078-.33.155-.407.29-.097.137-.117.311-.136.486a2.702 2.702 0 0 0-1.106.175c-.252-.718-.504-1.436-.776-2.154Zm.35.175.057.426c.214.02.427.04.64.097.292.078.563.253.854.37-.407-.447-.99-.7-1.552-.893Zm.33.64v.388c.407-.02.814.058 1.202.175a2.38 2.38 0 0 0-1.203-.563Zm.077.62c.02.156.039.311.077.447.31-.155.64-.194.97-.214a1.978 1.978 0 0 0-1.047-.232Z"/>
    <path fill="#EFE02E" d="M43.32 53.312a.514.514 0 0 1 .543.136c.252.233.213.699-.078.892a.556.556 0 0 1-.815-.232c-.135-.31.04-.699.35-.796Z"/>
    <path fill="#EFE02E" d="M43.611 54.554a.876.876 0 0 0 .544-.504c.349.504.66 1.086.756 1.687.078.427.02.873-.175 1.242-.232.466-.64.795-1.086 1.067-.776.466-1.649.718-2.522.912l-.291-.291c.834-.175 1.688-.291 2.464-.699.62-.33 1.164-.873 1.28-1.59.097-.64-.155-1.261-.465-1.805.038.447.155.893.116 1.339-.039.466-.233.912-.582 1.222-.388.369-.931.524-1.455.602-.679.097-1.377.135-2.076.232-.465-.465-.95-.93-1.435-1.396 1.105 0 2.211-.02 3.278-.291.621-.175 1.242-.466 1.591-1.029.155-.213.117-.465.058-.698Zm-.136 1.203c-.349.465-.892.737-1.435.873-.796.213-1.63.233-2.464.194.097.155.194.33.33.465.233.04.465.02.679.02.737-.039 1.513-.097 2.192-.427.466-.213.873-.601 1.048-1.086.116-.31.097-.64.097-.97-.117.31-.214.66-.447.93ZM13.349 54.806c.038-.116.155-.252.29-.213.117 0 .156.155.214.252-.058.117-.155.214-.194.33 0 .194.194.31.35.369.698.29 1.396.601 2.095.911.213.097.446.078.678.078 2.736.039 5.49.058 8.226.097.02.175.02.388.155.524.194.271.602.368.873.194.175-.078.253-.252.33-.427.058.136.117.272.253.369.232.194.582.194.834.019.116-.078.194-.233.252-.35.078.137.155.292.29.37a.678.678 0 0 0 .738.019c.155-.078.233-.252.31-.388.059.097.117.213.195.31a.675.675 0 0 0 .814.097c.155-.077.253-.252.33-.388.078.136.136.272.252.35a.671.671 0 0 0 .776.019c.136-.097.214-.252.291-.388.059.136.117.271.233.368.233.194.582.194.834.02.117-.078.194-.233.253-.35.077.156.174.311.33.389.252.155.6.097.814-.097.136-.117.175-.31.233-.485.795 0 1.61.038 2.406.019.02-.078.038-.175.077-.252.408.02.815.02 1.203.039.097-.02.155.077.233.155.388.427.757.853 1.145 1.3-.699.077-1.397.155-2.096.174.02-.097.04-.233-.077-.29-.214-.137-.505-.059-.66.116.058.077.117.135.175.213-.369.058-.738.078-1.126.097l.117-.233c-.155-.252-.582-.252-.757 0 .02.117.117.175.214.233-.388.058-.757.058-1.145.058.058-.077.155-.174.097-.271-.194-.175-.563-.175-.718.058 0 .136.155.194.252.252-.407.058-.814.039-1.222.058a1.1 1.1 0 0 0 .155-.252c-.155-.252-.601-.252-.756 0 .02.155.174.194.29.252-.445.039-.892.039-1.338.039.058-.078.136-.136.194-.213-.058-.194-.31-.253-.485-.214-.116.02-.29.097-.252.252l.155.156a5.99 5.99 0 0 1-1.183.038c.058-.097.213-.155.174-.29-.174-.214-.523-.214-.717-.02-.04.155.096.213.194.291-.408.02-.815.02-1.242-.02.078-.077.213-.135.175-.29-.156-.156-.408-.175-.602-.097-.077.038-.136.116-.116.194l.174.174c-.446.02-.873 0-1.319-.02.097-.057.175-.116.252-.193.04-.175-.174-.252-.31-.272-.155-.02-.408.039-.408.252.059.059.117.136.175.194-.427 0-.854-.019-1.261-.038.097-.059.252-.117.233-.253-.136-.252-.582-.252-.718-.019.02.058.039.155.039.213-.33 0-.66-.038-.99-.077.078-.078.175-.233.059-.31-.214-.156-.524-.098-.699.077.02.039.058.136.078.175-.35 0-.718-.059-1.067-.078a.81.81 0 0 0 .116-.155c-.155-.31-.756-.31-.776.077-.271-.038-.543-.077-.795-.116.02-.272-.291-.369-.524-.291-.116.02-.194.136-.272.213-.64-.077-1.3-.174-1.96-.232-.794-.02-1.629-.059-2.405.232a3.6 3.6 0 0 0-.892.485c1.59.272 3.2.524 4.811.718-.155.233-.31.446-.465.68-2.367-.292-4.734-.66-7.062-1.223.718-.02 1.455-.078 2.095-.407.35-.175.66-.505.698-.912.04-.446-.174-.854-.446-1.184-.116-.155-.271-.29-.349-.446-.02-.29.078-.582.175-.815Zm2.696 1.785c.04.136.058.272.155.369.175.213.486.271.757.271.388.02.796.02 1.183.078 0-.213-.019-.446-.019-.66-.698 0-1.377-.019-2.076-.058Zm2.833.097c-.194.039-.194.31-.04.388.234.039.486.039.738 0 .194-.02.213-.349.02-.388a4.432 4.432 0 0 0-.718 0Zm1.241 0c-.174.039-.194.31-.038.388.232.039.485.039.737 0 .194-.02.213-.33.02-.388a4.435 4.435 0 0 0-.719 0Zm1.223.039c-.117.097-.097.31.058.35.252.038.485.038.737 0 .213-.059.155-.408-.058-.389-.252 0-.505-.039-.737.039Zm1.241 0c-.116.097-.097.31.058.35.253.038.485.038.738 0 .213-.059.155-.408-.059-.389-.252 0-.523-.058-.737.039Zm1.32 0c-.098.097-.078.291.058.35.252.038.485.038.737 0 .136-.02.155-.156.136-.272-.097-.156-.291-.136-.447-.136-.155.02-.33-.02-.485.058Zm-8.575.582c.038.02.135.058.174.078.078-.078.175-.175.175-.291.02-.156-.097-.35-.272-.291-.175.077-.116.33-.077.504Zm19.458-.407c-.194.019-.213.31-.058.388.252.038.504.038.756.019.175-.039.194-.31.04-.388a1.897 1.897 0 0 0-.738-.02Zm1.3 0c-.194.038-.194.349 0 .388.194.019.368.019.562.019.097 0 .214 0 .272-.097.078-.116.02-.291-.136-.31a2.11 2.11 0 0 0-.698 0Zm1.242 0c-.195.038-.195.349 0 .388.232.019.465.019.698 0 .213-.02.213-.388 0-.388a2.11 2.11 0 0 0-.699 0ZM25.686 54.768c.271.097.543.213.814.31-.194 0-.388.02-.582.02a4.853 4.853 0 0 1-.232-.33ZM38.394 55.563a.615.615 0 0 1-.213-.524c.097.155.174.33.213.524ZM37.424 55.544c.155.097.29.213.427.349 1.416 1.396 2.832 2.774 4.248 4.17-.135.098-.29.253-.465.253-.156-.136-.291-.31-.427-.466l-3.26-3.666c-.174-.233-.368-.427-.523-.64ZM38.334 55.621c.252.213.291.563.407.854a.566.566 0 0 0-.174-.04c-.136-.27-.175-.542-.233-.814Z"/>
    <path fill="#EFE02E" d="M25.59 56.242c.272-.078.602.097.68.368a.552.552 0 0 1-.485.699.541.541 0 0 1-.602-.524.523.523 0 0 1 .407-.543Zm0 .485c-.116.039-.271.155-.194.29.098.195.35.195.524.117.117-.058.155-.233.078-.33a.508.508 0 0 0-.408-.077ZM26.907 56.242c.31-.116.699.136.718.485.039.29-.213.601-.524.601a.565.565 0 0 1-.562-.388.553.553 0 0 1 .368-.698Zm0 .504c-.194.02-.271.31-.077.408.213.097.582.038.562-.253-.116-.155-.31-.232-.485-.155ZM28.21 56.242a.529.529 0 0 1 .64.232c.136.233.097.563-.136.718-.252.194-.66.136-.815-.155-.174-.272 0-.698.31-.795Zm0 .504c-.117.039-.214.136-.175.272.116.271.64.252.68-.059-.059-.213-.33-.29-.505-.213ZM29.529 56.261c.291-.116.64.058.718.35.097.31-.136.678-.466.698a.555.555 0 0 1-.601-.446c-.039-.252.116-.524.349-.602Zm-.213.68c.097.096.174.252.33.252.174.038.387-.04.387-.253-.038-.174-.232-.232-.388-.213-.135 0-.213.136-.33.213ZM30.92 56.242c.31-.097.68.155.68.485.038.31-.253.62-.563.582a.548.548 0 0 1-.524-.524c-.039-.252.155-.485.407-.543Zm-.02.485c-.116.02-.27.155-.193.29.136.253.582.214.66-.058-.02-.213-.292-.271-.466-.232ZM32.224 56.242c.232-.078.504.039.64.233.174.252.058.62-.214.776a.566.566 0 0 1-.776-.272c-.136-.291.059-.66.35-.737Zm0 .504c-.194.02-.253.31-.078.408.194.097.524.058.582-.194-.078-.214-.31-.291-.505-.214ZM33.544 56.242c.33-.117.698.136.718.465a.547.547 0 0 1-1.086.136c-.059-.252.116-.524.368-.601Zm0 .504a.422.422 0 0 0-.175.136c-.077.407.737.407.66 0-.117-.136-.31-.213-.485-.136ZM15.422 57.231c0-.136.02-.271.077-.388.059.136.136.369-.077.388ZM19.652 57.949a.955.955 0 0 1-.116.33c-.33.66-.66 1.319-1.01 1.96a.602.602 0 0 1-.348-.175c.29-.466.62-.932.931-1.378.194-.252.35-.504.543-.737ZM21.03 58.26a.353.353 0 0 1 .214-.195c-.31.873-.699 1.727-1.048 2.6-.097 0-.213 0-.31-.02-.04-.096.038-.193.058-.27.369-.7.737-1.417 1.086-2.116ZM22.522 58.725c.097-.213.155-.446.369-.582-.059.291-.175.582-.272.873-.194.582-.407 1.164-.601 1.766-.04.097-.059.213-.156.29-.116.04-.252 0-.29-.116-.02-.116.058-.194.096-.29.291-.66.582-1.3.854-1.94ZM36.977 58.123c.232.117.349.35.504.544.543.756 1.086 1.494 1.63 2.25.038.078.135.155.097.233-.117.078-.291.078-.35-.058-.543-.854-1.086-1.707-1.63-2.542-.096-.136-.193-.271-.251-.426ZM35.404 58.201c.097.058.214.117.272.233.524.815 1.028 1.649 1.552 2.464.116.213.31.407.271.66-.096 0-.213-.02-.31-.04-.097-.096-.155-.232-.233-.368-.524-.97-1.067-1.94-1.552-2.949ZM24.17 58.86c.06-.212.117-.426.253-.6-.058.388-.155.737-.233 1.125-.136.601-.271 1.183-.407 1.785-.02.155-.213.232-.33.155 0-.097.02-.194.039-.291.233-.737.465-1.455.679-2.173ZM25.86 58.628a.955.955 0 0 1 .117-.33c0 .35-.039.68-.058 1.028-.058.699-.097 1.416-.175 2.115 0 .136-.174.213-.29.116-.137-.058-.059-.213-.059-.33.155-.853.31-1.726.466-2.6ZM29.06 58.376c.078.058.156.155.156.252.174 1.048.349 2.095.504 3.162-.116.02-.233.059-.33 0-.058-.097-.038-.213-.058-.33a93.817 93.817 0 0 1-.213-2.327 4.969 4.969 0 0 1-.058-.757ZM30.65 58.356a.62.62 0 0 1 .175.31c.291 1.049.601 2.077.892 3.124-.097 0-.213.04-.29-.02-.059-.077-.059-.174-.078-.251-.214-.912-.427-1.824-.64-2.755l-.059-.408ZM32.318 58.356c.097.097.175.233.233.37.408.989.854 1.978 1.242 2.987-.136.038-.272.077-.408.058-.29-.892-.562-1.785-.853-2.697a3.06 3.06 0 0 1-.214-.718ZM33.89 58.299c.175.174.272.426.389.64l1.105 2.095c.097.194.272.407.194.64h-.232c-.408-.892-.796-1.804-1.184-2.696a2.617 2.617 0 0 1-.271-.68ZM27.49 58.628c0-.078.038-.155.096-.233.078 1.01.097 2.018.155 3.007 0 .097.02.214-.058.291-.077.117-.33.078-.33-.077 0-.563.059-1.145.059-1.708 0-.155.039-.989.077-1.28ZM37.908 59.152c.737-.136 1.494-.214 2.231-.388.097.116.214.252.31.368-.737.175-1.493.31-2.23.447a3.43 3.43 0 0 0-.31-.427ZM19.187 59.152c.407.058.815.097 1.222.155a20.45 20.45 0 0 0-.349.66c-.407-.04-.815-.078-1.222-.117.136-.252.252-.485.35-.698ZM36.336 59.346c.388-.058.795-.097 1.183-.175.097.156.175.291.272.427l-1.164.175a8.136 8.136 0 0 1-.291-.427ZM20.836 59.326c.427.04.854.078 1.28.136-.096.214-.194.408-.29.621-.427-.02-.835-.058-1.262-.097.098-.213.195-.427.272-.66ZM34.668 59.52c.427-.038.834-.077 1.242-.116.077.155.155.291.232.446-.407.04-.814.097-1.222.136-.077-.155-.155-.31-.252-.465ZM39.38 59.482c.137-.02.253-.059.389-.078.175.466.35.931.504 1.416-.155.02-.33.078-.485.02-.174-.447-.271-.912-.407-1.358ZM22.541 59.482c.427.038.873.077 1.3.097a7.58 7.58 0 0 1-.194.62c-.446-.019-.873-.058-1.319-.077.078-.194.155-.407.213-.64ZM33.037 59.657c.427-.04.854-.059 1.28-.097.059.155.136.31.194.465-.426.039-.853.078-1.28.097-.078-.155-.136-.31-.194-.465ZM24.23 59.618l1.338.058c-.02.194-.058.388-.097.601-.465 0-.931-.02-1.377-.058.039-.194.097-.388.136-.601ZM25.955 59.714h1.397c-.02.194-.02.388-.04.582-.465 0-.93-.019-1.396-.019.02-.175.039-.369.039-.563ZM31.232 59.734l1.378-.058c.039.155.097.31.136.485-.466.039-.912.058-1.378.077-.039-.174-.077-.349-.136-.504ZM27.742 59.753c.446 0 .893 0 1.339.02.02.174.039.349.039.524-.447 0-.912.019-1.358.019 0-.194 0-.369-.02-.563ZM29.488 59.773c.466 0 .912-.02 1.378-.02.038.175.058.33.097.505l-1.378.058c-.038-.194-.058-.369-.097-.543Z"/>
    <g fill="#CC7A30">
      <path d="M27.743 45.533c.097 0 .194 0 .31.02v.484c2.329-.058 4.657.214 6.888.873a24.528 24.528 0 0 1 4.617 1.882v.252c-2.697-1.377-5.645-2.308-8.672-2.619a23.372 23.372 0 0 0-2.852-.116c0 3.278-.02 6.577-.02 9.855a2.233 2.233 0 0 0-.27.33c0-3.395-.02-6.77 0-10.166-3.163.078-6.267.815-9.216 1.901a49.71 49.71 0 0 0-3.628 1.552c-.62.291-1.222.602-1.804.951a1.416 1.416 0 0 1-.834.213c.271-.252.62-.388.93-.543 2.174-1.086 4.385-2.095 6.694-2.871 2.522-.834 5.16-1.397 7.838-1.494 0-.155 0-.33.02-.504ZM41.266 52.11c.582.174 1.144.446 1.552.911-.291-.116-.563-.29-.854-.368-.213-.059-.427-.078-.64-.097-.02-.156-.039-.291-.058-.447ZM41.594 52.75c.446.077.853.271 1.203.562-.388-.116-.796-.194-1.203-.174v-.389ZM41.672 53.37c.369 0 .718.078 1.047.253-.33 0-.678.058-.97.213-.019-.175-.058-.31-.077-.466ZM44.213 55.912c.038-.446-.078-.892-.117-1.339.33.544.582 1.164.466 1.804-.117.699-.66 1.261-1.28 1.591-.757.408-1.63.524-2.464.699a7.717 7.717 0 0 1-.699-.68c.68-.116 1.378-.135 2.076-.232.524-.078 1.048-.233 1.455-.602.33-.33.524-.776.563-1.241Z"/>
      <path d="M43.478 55.757c.213-.272.31-.621.446-.932 0 .33 0 .66-.097.97-.155.505-.582.873-1.048 1.087-.679.31-1.435.388-2.192.427-.233 0-.466.02-.68-.02-.135-.136-.212-.31-.329-.465.815.038 1.65.02 2.464-.194.543-.156 1.086-.427 1.436-.873ZM16.045 56.591c.679.039 1.377.078 2.056.078 0 .213 0 .446.02.66a7.912 7.912 0 0 0-1.184-.078c-.271 0-.562-.058-.756-.272-.078-.116-.097-.271-.136-.388ZM25.59 56.727a.508.508 0 0 1 .407.078c.078.116.039.271-.078.33-.174.058-.427.058-.524-.117-.096-.136.059-.252.195-.291ZM26.909 56.746a.433.433 0 0 1 .485.155c.039.291-.35.35-.563.252-.194-.097-.116-.388.078-.407ZM28.21 56.746c.174-.077.426 0 .485.194-.04.31-.563.33-.68.059 0-.117.098-.214.195-.253ZM29.314 56.94c.098-.077.195-.213.33-.213.155-.02.369.039.388.213 0 .214-.233.272-.388.253-.155 0-.232-.156-.33-.253ZM30.904 56.727c.175-.04.427.019.466.232-.078.291-.524.31-.66.058-.077-.135.078-.252.194-.29ZM32.225 56.746a.403.403 0 0 1 .504.194c-.058.252-.369.29-.582.194-.175-.078-.116-.369.078-.388ZM33.545 56.746c.175-.078.369 0 .485.136.078.407-.737.407-.66 0a.422.422 0 0 1 .175-.136ZM18.799 56.862c.252-.077.504-.077.776-.038.02.038.039.097.058.116-.291.039-.601.097-.834-.078ZM20.041 56.862c.252-.077.504-.077.776-.038.02.038.039.097.058.116-.29.039-.601.097-.834-.078ZM21.398 56.804h.718v.156h-.718v-.156ZM22.643 56.804h.717v.156h-.717v-.156ZM23.997 56.824c.214-.04.447-.04.66-.02.02.039.039.097.039.117a2.187 2.187 0 0 1-.796 0c.04 0 .078-.059.097-.097ZM34.748 57.018h.757c-.02.038-.04.097-.059.135-.232.04-.465.02-.698 0v-.135ZM36.107 57.037c.252-.039.543-.058.795.039-.232.136-.485.097-.737.078-.02-.02-.077-.04-.116-.059l.058-.058ZM37.27 57.095c.252-.136.581-.097.853 0-.252.117-.601.136-.853 0ZM14.842 57.89c.756-.29 1.59-.251 2.405-.232.66.058 1.3.155 1.96.233.097.058.174.116.252.194-.233.33-.466.66-.68 1.009h-.018c-1.61-.194-3.202-.447-4.812-.718.272-.194.563-.369.893-.485ZM19.283 57.89a.502.502 0 0 1 .66.02c-.097.039-.194.02-.291 0-.136.058-.272.078-.369-.02ZM20.895 57.987c.135-.174.562-.155.523.117-.077-.039-.155-.097-.232-.136-.078.058-.156.097-.233.155-.02-.02-.04-.097-.058-.136ZM19.983 57.987c.271.04.543.078.795.117.097 0 .233.078.155.194-.155.35-.349.679-.523 1.009-.408-.058-.815-.097-1.223-.155.136-.33.31-.64.466-.951.039-.097.155-.155.233-.214h.097ZM36.727 58.046a.554.554 0 0 1 .64 0c-.097.116-.233.097-.369.038-.097.02-.194.02-.271-.038ZM22.486 58.123a.557.557 0 0 1 .621-.019.604.604 0 0 1-.078.117c-.038-.04-.116-.097-.155-.136-.136.058-.271.174-.388.038ZM35.137 58.104c.194-.077.504-.155.601.117a1.643 1.643 0 0 1-.33-.078c-.038.039-.077.078-.116.136-.039-.058-.117-.136-.155-.175ZM37.386 58.201c.698-.02 1.396-.097 2.095-.175h.02c.213.253.426.485.64.738-.738.174-1.475.271-2.231.388-.233-.31-.485-.621-.68-.951h.156ZM24.076 58.24c.136-.174.388-.174.543-.058v.155c-.038-.039-.116-.136-.155-.174-.136.058-.271.252-.388.077ZM33.582 58.182a.658.658 0 0 1 .601 0c-.019.038-.077.116-.097.155-.077-.02-.155-.039-.213-.058a.59.59 0 0 0-.136.097c-.058-.097-.116-.136-.155-.194ZM21.282 58.181h.136c.35.02.698.078 1.067.078h.136c-.117.427-.33.815-.505 1.203-.426-.058-.853-.097-1.28-.136.136-.388.31-.757.446-1.145ZM25.646 58.24a.595.595 0 0 1 .621 0c-.038.038-.116.116-.155.135l-.174-.174c-.04.039-.117.136-.156.174-.038-.038-.116-.097-.136-.135ZM27.24 58.298a.606.606 0 0 1 .602-.02c-.02.04-.059.136-.097.175-.078-.058-.136-.097-.214-.155-.039.039-.097.116-.136.155l-.155-.155ZM28.83 58.318c.078-.04.155-.078.252-.117.136.039.252.078.388.136-.116.116-.232.058-.349-.02-.058.04-.136.098-.194.136-.02-.058-.078-.116-.097-.135ZM30.398 58.26c.214-.078.447-.078.621.077-.116.097-.252.039-.368-.02-.04.04-.117.097-.136.136-.039-.058-.078-.155-.117-.194ZM32.01 58.24c.194-.078.427-.155.582 0l-.02.097c-.058 0-.194-.02-.252-.02-.039.02-.097.059-.136.078a1.255 1.255 0 0 1-.174-.155ZM22.875 58.492c.038-.078.058-.213.174-.175.33.04.66.078.99.078.058 0 .136.02.194.02-.136.387-.253.775-.369 1.183h-.02c-.426-.039-.872-.058-1.3-.097.098-.35.214-.68.33-1.009ZM35.697 58.337c.369-.02.757-.039 1.125-.097l.078-.02c.233.31.427.64.62.97-.387.059-.795.117-1.183.175-.213-.35-.426-.679-.64-1.028ZM35.271 58.356l.078-.02c.194.35.388.7.563 1.068l-1.242.116c-.214-.368-.388-.737-.582-1.106h.039c.388 0 .776-.019 1.144-.058ZM33.757 58.434h.058c.175.368.33.737.486 1.125-.427.039-.854.058-1.281.097H33c-.155-.388-.33-.757-.484-1.145.426-.038.834-.019 1.241-.077ZM24.232 59.617c.059-.388.175-.776.253-1.164.426 0 .853.04 1.26.04-.058.407-.193 1.202-.193 1.202-.427-.02-.873-.058-1.32-.078ZM30.48 58.512l.078-.02c.136.408.213.815.31 1.242-.465.02-.912.02-1.377.02-.078-.408-.117-.816-.214-1.223h.04c.387.039.775.058 1.163-.02ZM32.224 58.511h.038c.117.389.252.776.369 1.164l-1.378.059c-.135-.388-.232-.796-.349-1.184.427 0 .873 0 1.32-.038ZM26.076 58.53c.427 0 .873.02 1.319.02h.058c0 .388-.039.796-.077 1.184-.447 0-.912-.02-1.358 0 0-.408 0-.815.058-1.203ZM27.666 58.55h.039c.407.02.815.04 1.241.02h.02l.116 1.222c-.446 0-.892-.02-1.338-.02a27.571 27.571 0 0 1-.078-1.222Z"/>
    </g>
  </g>
  <defs>
    <clipPath id="a">
      <path fill="#fff" d="M0 0h55v69.046H0z"/>
    </clipPath>
  </defs>
</svg>
