<svg width="55" height="68" fill="none" xmlns="http://www.w3.org/2000/svg"><path fill-rule="evenodd" clip-rule="evenodd" d="m24.578 8.44-1.125-.621.543 1.164c.175-.194.369-.369.582-.544zM23.745 9.274l-1.241-.31.815.989c.116-.233.252-.466.427-.68zM23.047 13.813l-.893.854 1.223-.155a3.786 3.786 0 0 1-.33-.699zM25.587 7.838l-.95-.892.232 1.26c.233-.135.466-.27.718-.368zM22.756 12.184c0-.252.02-.485.058-.718l-1.222.31 1.164.466v-.058zM23.144 10.302h-1.261l1.028.737c.039-.252.116-.485.233-.737zM22.776 12.65l-1.087.6 1.223.156c-.058-.252-.117-.504-.136-.757zM31.68 9.953l.816-.99-1.242.31c.155.214.31.447.427.68zM26.015 6.403l-.078 1.28c.253-.097.505-.155.776-.194l-.698-1.086zM47.103 37.792h-1.998c-.893.291-1.572 1.048-1.65 2.076-.038.466.098 1.125.699 1.145a.723.723 0 0 0 .66-.563c.077-.29.31-.524.64-.543.563.02.737.64.698 1.106-.097 1.358-1.144 2.211-2.425 2.23-3.822-.019-5.8-4.617-9.195-5.45h-1.999c-.892.29-1.571 1.047-1.649 2.075-.039.466.097 1.125.699 1.145a.723.723 0 0 0 .66-.563c.077-.29.31-.524.64-.543.562.02.737.64.698 1.106-.097 1.358-1.145 2.211-2.425 2.23-3.822-.019-5.8-4.617-9.196-5.45h-1.998c-.893.29-1.572 1.047-1.65 2.075-.038.466.098 1.125.7 1.145a.723.723 0 0 0 .659-.563c.077-.29.31-.524.64-.543.563.02.737.64.698 1.106-.097 1.358-1.144 2.211-2.425 2.23-3.822-.019-5.8-4.617-9.195-5.45h-1.94c-.893.29-1.572 1.047-1.65 2.075-.038.466.098 1.125.699 1.145a.723.723 0 0 0 .66-.563c.077-.29.31-.524.64-.543.562.02.737.64.698 1.106-.097 1.358-1.144 2.211-2.425 2.23-2.173-.019-3.764-1.513-5.335-2.948-.02-.02-.33-.272-.33-.291v18.682c0 1.514.155 2.775 1.572 3.609.562.33 1.571.679 2.211.679h18.12l.194.02c1.358.096 2.639.484 3.57 1.532.698.795 1.106 1.92 1.416 3.007.272-.931.602-1.862 1.145-2.62.97-1.357 2.425-1.94 4.054-1.94H50.77c.562 0 1.493-.31 1.998-.562 1.59-.795 1.785-2.095 1.785-3.725V42.895c-.02 0-.33-.136-.33-.136-2.58-1.203-4.385-4.307-7.12-4.967zM32.108 11.04l1.009-.738h-1.261c.096.252.194.485.252.737zM28.962 6.402l-.698 1.087c.271.039.524.116.776.194l-.078-1.28zM31.002 8.983l.543-1.164-1.125.62c.213.175.407.35.582.544zM30.341 6.946l-.95.892c.252.117.485.233.698.388l.252-1.28zM29.992 16.2l.99.717-.369-1.164c-.213.175-.407.33-.62.447zM32.088 13.406l1.222-.155-1.086-.602c-.04.253-.078.505-.136.757zM30.922 15.462l1.144.447-.66-1.029c-.154.194-.31.388-.484.582zM31.621 14.492l1.222.156-.892-.854a3.859 3.859 0 0 1-.33.698zM23.59 14.86l-.66 1.03 1.144-.447a4.829 4.829 0 0 1-.485-.582zM32.244 12.184v.039l1.164-.466-1.223-.31c.04.252.059.485.059.737z" fill="#1D78A9"/><path fill-rule="evenodd" clip-rule="evenodd" d="M.406.408v27.47H6.42v-3.53h3.745v3.53h5.18v-3.53h3.744v3.53h5.18v-3.53h3.744v3.53h5.18v-3.53h3.744v3.53h5.18v-3.53h3.744v3.53h5.122V24.31h3.57V.408H.406zm37.773 15.19-4.52-.562 3.317 3.123-4.23-1.668 2.445 3.84-3.686-2.676 1.416 4.326-2.91-3.512.291 4.54-1.94-4.113-.853 4.462-.854-4.462-1.94 4.113.29-4.54-2.91 3.512 1.417-4.326-3.686 2.677 2.444-3.841-4.229 1.668 3.298-3.123-4.52.562 3.996-2.192-4.52-.563 4.404-1.125-4.23-1.668h4.56l-3.686-2.678 4.404 1.126-2.91-3.512 3.996 2.192-1.94-4.112 3.317 3.123-.853-4.462L25.8 5.549l.291-4.54 1.417 4.326 1.396-4.326.291 4.54 2.425-3.841-.853 4.462 3.317-3.124-1.94 4.113 3.997-2.192-2.91 3.511 4.404-1.125-3.687 2.677h4.56l-4.23 1.669 4.404 1.125-4.52.563 4.016 2.211z" fill="#1D78A9"/><path fill-rule="evenodd" clip-rule="evenodd" d="m25.316 17.635.776-.931c-.232-.078-.465-.175-.698-.272l-.078 1.203zM24.016 16.917l.989-.717c-.213-.136-.407-.291-.601-.447l-.388 1.164zM26.75 18.004l.505-1.087c-.252-.02-.505-.039-.737-.097l.232 1.184zM28.247 18.004l.232-1.184a4.798 4.798 0 0 1-.737.097l.505 1.087zM27.49 6.228l-.408 1.222c.136-.02.272-.02.407-.02.136 0 .272 0 .408.02l-.408-1.222zM28.904 16.704l.776.931-.077-1.203c-.233.097-.466.194-.699.272z" fill="#1D78A9"/></svg>